# xmcd
#
# Track frame offsets:
#	150
#	13229
#	25776
#	37794
#	58769
#	78400
#	100143
#	117906
#	144498
#	157499
#	171977
#	195352
#	217959
#	232022
#	250824
#	266103
#	287410
#	310809
#	322836
#	337899
#
# Disc length: 4752 seconds
#
# Revision: 1
# Processed by: cddbd v1.5.2PL0 Copyright (c) Steve Scherf et al.
# Submitted via: audiograbber 1.83.01
#
DISCID=14128e14
DTITLE=Ben Coulter - "Cuzz" Vol. 2
DYEAR=2006
DGENRE=Country
TTITLE0=Roll on Train
TTITLE1=That Kind of Woman
TTITLE2=10 Miles north of Louisianna
TTITLE3=That's My Baby
TTITLE4=Headed down to Georgia
TTITLE5=I'll be gone before the snow falls
TTITLE6=Why do I always have the blues
TTITLE7=Got the Devil on my Heels
TTITLE8=Thank you, Jesus
TTITLE9=Mr. Guitar Man
TTITLE10=Your're Everything to me
TTITLE11=Delta Blues
TTITLE12=I write songs for a living
TTITLE13=Northin' worse than being Alone in the middle of the night
TTITLE14=Dixie Woman
TTITLE15=You're Love is Amazing to me
TTITLE16=Went to see Ol'Hank today
TTITLE17=Why don't you love me
TTITLE18=Will you remember my name
TTITLE19=Got the devil on my heels - version 2
EXTD=
EXTT0=
EXTT1=
EXTT2=
EXTT3=
EXTT4=
EXTT5=
EXTT6=
EXTT7=
EXTT8=
EXTT9=
EXTT10=
EXTT11=
EXTT12=
EXTT13=
EXTT14=
EXTT15=
EXTT16=
EXTT17=
EXTT18=
EXTT19=
PLAYORDER=
